<svg id="visual" viewBox="0 0 900 600" width="900" height="600" xmlns="http://www.w3.org/2000/svg" xmlns:xlink="http://www.w3.org/1999/xlink" version="1.1"><rect x="0" y="0" width="900" height="600" fill="#001220"></rect><path d="M496 600L502.3 585.7C508.7 571.3 521.3 542.7 508.2 514.2C495 485.7 456 457.3 447 428.8C438 400.3 459 371.7 457.7 343C456.3 314.3 432.7 285.7 420.5 257C408.3 228.3 407.7 199.7 428.7 171.2C449.7 142.7 492.3 114.3 487.8 85.8C483.3 57.3 431.7 28.7 405.8 14.3L380 0L900 0L900 14.3C900 28.7 900 57.3 900 85.8C900 114.3 900 142.7 900 171.2C900 199.7 900 228.3 900 257C900 285.7 900 314.3 900 343C900 371.7 900 400.3 900 428.8C900 457.3 900 485.7 900 514.2C900 542.7 900 571.3 900 585.7L900 600Z" fill="#c62368"></path><path d="M551 600L553.8 585.7C556.7 571.3 562.3 542.7 560.7 514.2C559 485.7 550 457.3 536.2 428.8C522.3 400.3 503.7 371.7 498.3 343C493 314.3 501 285.7 511.2 257C521.3 228.3 533.7 199.7 541 171.2C548.3 142.7 550.7 114.3 540.7 85.8C530.7 57.3 508.3 28.7 497.2 14.3L486 0L900 0L900 14.3C900 28.7 900 57.3 900 85.8C900 114.3 900 142.7 900 171.2C900 199.7 900 228.3 900 257C900 285.7 900 314.3 900 343C900 371.7 900 400.3 900 428.8C900 457.3 900 485.7 900 514.2C900 542.7 900 571.3 900 585.7L900 600Z" fill="#ac1d72"></path><path d="M623 600L619.8 585.7C616.7 571.3 610.3 542.7 594.5 514.2C578.7 485.7 553.3 457.3 552.8 428.8C552.3 400.3 576.7 371.7 586.5 343C596.3 314.3 591.7 285.7 601 257C610.3 228.3 633.7 199.7 625.2 171.2C616.7 142.7 576.3 114.3 575 85.8C573.7 57.3 611.3 28.7 630.2 14.3L649 0L900 0L900 14.3C900 28.7 900 57.3 900 85.8C900 114.3 900 142.7 900 171.2C900 199.7 900 228.3 900 257C900 285.7 900 314.3 900 343C900 371.7 900 400.3 900 428.8C900 457.3 900 485.7 900 514.2C900 542.7 900 571.3 900 585.7L900 600Z" fill="#8d2078"></path><path d="M716 600L701.3 585.7C686.7 571.3 657.3 542.7 654 514.2C650.7 485.7 673.3 457.3 672.8 428.8C672.3 400.3 648.7 371.7 653.3 343C658 314.3 691 285.7 691.5 257C692 228.3 660 199.7 650.7 171.2C641.3 142.7 654.7 114.3 661.5 85.8C668.3 57.3 668.7 28.7 668.8 14.3L669 0L900 0L900 14.3C900 28.7 900 57.3 900 85.8C900 114.3 900 142.7 900 171.2C900 199.7 900 228.3 900 257C900 285.7 900 314.3 900 343C900 371.7 900 400.3 900 428.8C900 457.3 900 485.7 900 514.2C900 542.7 900 571.3 900 585.7L900 600Z" fill="#6a247a"></path><path d="M759 600L756.2 585.7C753.3 571.3 747.7 542.7 744.5 514.2C741.3 485.7 740.7 457.3 743.8 428.8C747 400.3 754 371.7 750 343C746 314.3 731 285.7 721.2 257C711.3 228.3 706.7 199.7 714.3 171.2C722 142.7 742 114.3 755.8 85.8C769.7 57.3 777.3 28.7 781.2 14.3L785 0L900 0L900 14.3C900 28.7 900 57.3 900 85.8C900 114.3 900 142.7 900 171.2C900 199.7 900 228.3 900 257C900 285.7 900 314.3 900 343C900 371.7 900 400.3 900 428.8C900 457.3 900 485.7 900 514.2C900 542.7 900 571.3 900 585.7L900 600Z" fill="#442777"></path><path d="M767 600L771.5 585.7C776 571.3 785 542.7 788 514.2C791 485.7 788 457.3 789 428.8C790 400.3 795 371.7 798.3 343C801.7 314.3 803.3 285.7 804.5 257C805.7 228.3 806.3 199.7 802.3 171.2C798.3 142.7 789.7 114.3 794.7 85.8C799.7 57.3 818.3 28.7 827.7 14.3L837 0L900 0L900 14.3C900 28.7 900 57.3 900 85.8C900 114.3 900 142.7 900 171.2C900 199.7 900 228.3 900 257C900 285.7 900 314.3 900 343C900 371.7 900 400.3 900 428.8C900 457.3 900 485.7 900 514.2C900 542.7 900 571.3 900 585.7L900 600Z" fill="#0a266f"></path></svg>